name rise49.8558peak67.6521fall70.3087.mot
datacolumns 19
datarows 54
range 18.749928 18.838258
endheader
time	ground_force1_vx	ground_force1_vy	ground_force1_vz	ground_force1_px	ground_force1_py	ground_force1_pz	ground_force2_vx	ground_force2_vy	ground_force2_vz	ground_force2_px	ground_force2_py	ground_force2_pz	ground_torque1_x	ground_torque1_y	ground_torque1_z	ground_torque2_x	ground_torque2_y	ground_torque2_z	
18.749928	66.615959	471.503665	19.178482	0.456554	0.000000	0.083749	-82.227395	471.010771	-12.184792	0.121255	0.000000	-0.094956	0.000000	5.925074	0.000000	0.000000	-20.207663	0.000000	
18.751593	67.935904	478.658432	20.318036	0.456669	0.000000	0.083839	-81.407743	461.013571	-11.313073	0.121480	0.000000	-0.094614	0.000000	6.728578	0.000000	0.000000	-19.835100	0.000000	
18.753264	69.202243	485.696098	21.446390	0.456705	0.000000	0.083928	-80.524643	450.913966	-10.456572	0.121727	0.000000	-0.094267	0.000000	7.527103	0.000000	0.000000	-19.452226	0.000000	
18.754926	70.413605	492.616879	22.561732	0.456662	0.000000	0.084016	-79.578640	440.721467	-9.616319	0.121996	0.000000	-0.093916	0.000000	8.318959	0.000000	0.000000	-19.059337	0.000000	
18.756593	71.568804	499.421392	23.662332	0.456541	0.000000	0.084102	-78.570417	430.445779	-8.793318	0.122285	0.000000	-0.093561	0.000000	9.102514	0.000000	0.000000	-18.656758	0.000000	
18.758261	72.666846	506.110611	24.746553	0.456340	0.000000	0.084187	-77.500772	420.096675	-7.988551	0.122594	0.000000	-0.093202	0.000000	9.876205	0.000000	0.000000	-18.244839	0.000000	
18.759931	73.706932	512.685830	25.812862	0.456061	0.000000	0.084272	-76.370619	409.683863	-7.202982	0.122921	0.000000	-0.092837	0.000000	10.638549	0.000000	0.000000	-17.823963	0.000000	
18.761599	74.688461	519.148628	26.859834	0.455703	0.000000	0.084355	-75.180968	399.216862	-6.437575	0.123264	0.000000	-0.092469	0.000000	11.388150	0.000000	0.000000	-17.394536	0.000000	
18.763264	75.611028	525.500842	27.886159	0.455267	0.000000	0.084437	-73.932927	388.704885	-5.693292	0.123624	0.000000	-0.092096	0.000000	12.123706	0.000000	0.000000	-16.956997	0.000000	
18.764925	76.474420	531.744541	28.890644	0.454753	0.000000	0.084518	-72.627695	378.156760	-4.971106	0.123997	0.000000	-0.091719	0.000000	12.844012	0.000000	0.000000	-16.511812	0.000000	
18.766596	77.278610	537.882000	29.872213	0.454164	0.000000	0.084599	-71.266574	367.580887	-4.272003	0.124384	0.000000	-0.091337	0.000000	13.547964	0.000000	0.000000	-16.059482	0.000000	
18.768267	78.023748	543.915689	30.829906	0.453498	0.000000	0.084678	-69.850980	356.985253	-3.596973	0.124781	0.000000	-0.090950	0.000000	14.234559	0.000000	0.000000	-15.600544	0.000000	
18.769925	78.710161	549.848244	31.762881	0.452757	0.000000	0.084757	-68.382466	346.377510	-2.947013	0.125189	0.000000	-0.090559	0.000000	14.902896	0.000000	0.000000	-15.135573	0.000000	
18.771592	79.338335	555.682458	32.670405	0.451944	0.000000	0.084835	-66.862754	335.765120	-2.323102	0.125604	0.000000	-0.090164	0.000000	15.552177	0.000000	0.000000	-14.665187	0.000000	
18.773263	79.908910	561.421259	33.551859	0.451058	0.000000	0.084911	-65.293772	325.155579	-1.726180	0.126024	0.000000	-0.089764	0.000000	16.181701	0.000000	0.000000	-14.190050	0.000000	
18.774926	80.422672	567.067692	34.406729	0.450102	0.000000	0.084988	-63.677699	314.556697	-1.157122	0.126449	0.000000	-0.089358	0.000000	16.790867	0.000000	0.000000	-13.710872	0.000000	
18.776597	80.880541	572.624903	35.234604	0.449077	0.000000	0.085063	-62.017011	303.976942	-0.616694	0.126875	0.000000	-0.088948	0.000000	17.379173	0.000000	0.000000	-13.228411	0.000000	
18.778267	81.283565	578.096112	36.035175	0.447985	0.000000	0.085137	-60.314523	293.425800	-0.105512	0.127301	0.000000	-0.088533	0.000000	17.946211	0.000000	0.000000	-12.743474	0.000000	
18.779926	81.632905	583.484595	36.808231	0.446829	0.000000	0.085211	-58.573426	282.914150	0.376002	0.127723	0.000000	-0.088113	0.000000	18.491666	0.000000	0.000000	-12.256906	0.000000	
18.781596	81.929835	588.793660	37.553653	0.445610	0.000000	0.085284	-56.797307	272.454590	0.827669	0.128140	0.000000	-0.087687	0.000000	19.015314	0.000000	0.000000	-11.769591	0.000000	
18.783265	82.175726	594.026620	38.271414	0.444332	0.000000	0.085356	-54.990160	262.061687	1.249587	0.128548	0.000000	-0.087256	0.000000	19.517022	0.000000	0.000000	-11.282434	0.000000	
18.784933	82.372038	599.186769	38.961578	0.442996	0.000000	0.085427	-53.156357	251.752097	1.642166	0.128944	0.000000	-0.086819	0.000000	19.996742	0.000000	0.000000	-10.796354	0.000000	
18.786600	82.520316	604.277354	39.624289	0.441605	0.000000	0.085498	-51.300600	241.544514	2.006139	0.129324	0.000000	-0.086376	0.000000	20.454512	0.000000	0.000000	-10.312262	0.000000	
18.788266	82.622177	609.301550	40.259775	0.440163	0.000000	0.085567	-49.427838	231.459392	2.342555	0.129686	0.000000	-0.085927	0.000000	20.890449	0.000000	0.000000	-9.831046	0.000000	
18.789933	82.679305	614.262434	40.868344	0.438672	0.000000	0.085636	-47.543148	221.518434	2.652748	0.130024	0.000000	-0.085471	0.000000	21.304750	0.000000	0.000000	-9.353549	0.000000	
18.791596	82.693437	619.162956	41.450375	0.437136	0.000000	0.085704	-45.651579	211.743807	2.938279	0.130335	0.000000	-0.085008	0.000000	21.697685	0.000000	0.000000	-8.880551	0.000000	
18.793263	82.666361	624.005921	42.006318	0.435557	0.000000	0.085771	-43.757980	202.157104	3.200840	0.130614	0.000000	-0.084538	0.000000	22.069596	0.000000	0.000000	-8.412748	0.000000	
18.794933	82.599902	628.793961	42.536690	0.433939	0.000000	0.085837	-41.866797	192.778080	3.442140	0.130855	0.000000	-0.084060	0.000000	22.420890	0.000000	0.000000	-7.950742	0.000000	
18.796597	82.495914	633.529516	43.042067	0.432286	0.000000	0.085903	-39.981872	183.623213	3.663761	0.131053	0.000000	-0.083573	0.000000	22.752037	0.000000	0.000000	-7.495034	0.000000	
18.798258	82.356276	638.214816	43.523082	0.430600	0.000000	0.085967	-38.106253	174.704199	3.866990	0.131202	0.000000	-0.083078	0.000000	23.063563	0.000000	0.000000	-7.046020	0.000000	
18.799932	82.182874	642.851859	43.980418	0.428886	0.000000	0.086030	-36.242032	166.026475	4.052657	0.131293	0.000000	-0.082572	0.000000	23.356044	0.000000	0.000000	-6.604001	0.000000	
18.801594	81.977600	647.442400	44.414802	0.427148	0.000000	0.086093	-34.390236	157.587933	4.220966	0.131320	0.000000	-0.082056	0.000000	23.630103	0.000000	0.000000	-6.169209	0.000000	
18.803259	81.742342	651.987940	44.827003	0.425388	0.000000	0.086154	-32.550790	149.377972	4.371353	0.131274	0.000000	-0.081528	0.000000	23.886405	0.000000	0.000000	-5.741828	0.000000	
18.804933	81.478970	656.489706	45.217819	0.423610	0.000000	0.086214	-30.722579	141.377060	4.502388	0.131145	0.000000	-0.080987	0.000000	24.125646	0.000000	0.000000	-5.322045	0.000000	
18.806597	81.189336	660.948651	45.588077	0.421819	0.000000	0.086273	-28.903608	133.556953	4.611727	0.130922	0.000000	-0.080432	0.000000	24.348551	0.000000	0.000000	-4.910089	0.000000	
18.808260	80.875258	665.365444	45.938626	0.420018	0.000000	0.086331	-27.091293	125.881706	4.696147	0.130592	0.000000	-0.079861	0.000000	24.555872	0.000000	0.000000	-4.506292	0.000000	
18.809925	80.538519	669.740465	46.270328	0.418210	0.000000	0.086388	-25.282853	118.309560	4.751659	0.130142	0.000000	-0.079272	0.000000	24.748372	0.000000	0.000000	-4.111140	0.000000	
18.811595	80.180856	674.073801	46.584056	0.416399	0.000000	0.086443	-23.475825	110.795712	4.773731	0.129555	0.000000	-0.078663	0.000000	24.926829	0.000000	0.000000	-3.725323	0.000000	
18.813265	79.803953	678.365247	46.880684	0.414588	0.000000	0.086497	-21.668648	103.295917	4.757593	0.128812	0.000000	-0.078030	0.000000	25.092028	0.000000	0.000000	-3.349780	0.000000	
18.814932	79.409439	682.614305	47.161085	0.412781	0.000000	0.086550	-19.861294	95.770744	4.698641	0.127892	0.000000	-0.077372	0.000000	25.244752	0.000000	0.000000	-2.985720	0.000000	
18.816595	78.998876	686.820188	47.426124	0.410981	0.000000	0.086601	-18.055890	88.190240	4.592900	0.126769	0.000000	-0.076683	0.000000	25.385781	0.000000	0.000000	-2.634624	0.000000	
18.818259	78.573759	690.981823	47.676653	0.409192	0.000000	0.086651	-16.257277	80.538617	4.437532	0.125414	0.000000	-0.075958	0.000000	25.515888	0.000000	0.000000	-2.298230	0.000000	
18.819925	78.135509	695.097858	47.913504	0.407416	0.000000	0.086699	-14.473416	72.818519	4.231333	0.123790	0.000000	-0.075192	0.000000	25.635829	0.000000	0.000000	-1.978475	0.000000	
18.821598	77.685470	699.166668	48.137489	0.405657	0.000000	0.086746	-12.715595	65.054350	3.975175	0.121853	0.000000	-0.074377	0.000000	25.746347	0.000000	0.000000	-1.677419	0.000000	
18.823264	77.224904	703.186367	48.349392	0.403916	0.000000	0.086791	-10.998350	57.294129	3.672332	0.119551	0.000000	-0.073502	0.000000	25.848160	0.000000	0.000000	-1.397138	0.000000	
18.824925	76.754989	707.154816	48.549964	0.402198	0.000000	0.086835	-9.339062	49.609378	3.328647	0.116818	0.000000	-0.072557	0.000000	25.941964	0.000000	0.000000	-1.139595	0.000000	
18.826600	76.276820	711.069633	48.739924	0.400503	0.000000	0.086876	-7.757196	42.092665	2.952462	0.113571	0.000000	-0.071524	0.000000	26.028426	0.000000	0.000000	-0.906504	0.000000	
18.828262	75.791399	714.928214	48.919950	0.398836	0.000000	0.086916	-6.273195	34.852631	2.554316	0.109701	0.000000	-0.070383	0.000000	26.108183	0.000000	0.000000	-0.699185	0.000000	
18.829928	75.299644	718.727740	49.090679	0.397197	0.000000	0.086955	-4.907091	28.006634	2.146371	0.105069	0.000000	-0.069105	0.000000	26.181837	0.000000	0.000000	-0.518437	0.000000	
18.831599	74.802378	722.465196	49.252707	0.395588	0.000000	0.086991	-3.676943	21.671544	1.741619	0.000000	0.000000	0.000000	0.000000	26.249957	0.000000	0.000000	-0.288954	0.000000	
18.833266	74.300339	726.137390	49.406578	0.394012	0.000000	0.087026	-2.597287	15.953703	1.352943	0.000000	0.000000	0.000000	0.000000	26.313073	0.000000	0.000000	-0.190747	0.000000	
18.834930	73.794173	729.740968	49.552792	0.392470	0.000000	0.087059	-1.677802	10.939385	0.992159	0.000000	0.000000	0.000000	0.000000	26.371675	0.000000	0.000000	-0.110264	0.000000	
18.836593	73.284437	733.272437	49.691797	0.390964	0.000000	0.087089	-0.922395	6.687139	0.669158	0.000000	0.000000	0.000000	0.000000	26.426216	0.000000	0.000000	-0.046986	0.000000	
18.838258	72.771601	736.728179	49.823990	0.389493	0.000000	0.087118	-0.328837	3.223053	0.391274	0.000000	0.000000	0.000000	0.000000	26.477104	0.000000	0.000000	0.000142	0.000000	
